<svg data-v-423bf9ae="" xmlns="http://www.w3.org/2000/svg" viewBox="0 0 491 90" class="iconLeft"><!----><!----><!----><g data-v-423bf9ae="" id="f7ad096b-d3cb-4524-b375-be256c210275" fill="black" transform="matrix(6.659267311411173,0,0,6.659267311411173,169.44478213420552,-22.15871013593825)"><path d="M1.07 11.38L1.07 11.38Q1.07 12.63 1.52 13.35Q1.98 14.08 2.89 14.08L2.89 14.08Q3.32 14.08 3.80 13.78Q4.29 13.49 4.57 13.10L4.57 13.10L4.57 9.58Q4.27 9.20 3.83 9.00Q3.39 8.80 2.88 8.80L2.88 8.80Q2.15 8.80 1.61 9.48Q1.07 10.15 1.07 11.38ZM0.38 11.76L0.38 11.76Q0.38 10.99 0.62 10.35Q0.85 9.71 1.25 9.29Q1.65 8.87 2.16 8.63Q2.67 8.40 3.23 8.40L3.23 8.40Q3.56 8.40 3.97 8.51Q4.38 8.62 4.55 8.76L4.55 8.76L4.62 8.76L4.51 7.83L4.51 6.26L3.47 6.05L3.51 5.84L5.13 5.70L5.19 5.77L5.19 12.83Q5.19 13.14 5.23 13.36Q5.27 13.58 5.33 13.70Q5.38 13.82 5.48 13.90Q5.57 13.99 5.63 14.01Q5.69 14.03 5.80 14.05L5.80 14.05L6.21 14.14L6.17 14.39Q5.84 14.53 5.52 14.53L5.52 14.53Q5.07 14.53 4.85 14.27Q4.63 14 4.63 13.55L4.63 13.55L4.63 13.50L4.57 13.50Q4.24 13.95 3.71 14.25Q3.17 14.55 2.52 14.55L2.52 14.55Q1.57 14.55 0.98 13.82Q0.38 13.08 0.38 11.76ZM7.57 13.04L7.57 13.04Q7.57 13.47 7.83 13.79Q8.09 14.10 8.53 14.10L8.53 14.10Q9.00 14.10 9.40 13.83Q9.80 13.56 10.06 13.13L10.06 13.13L10.06 11.44Q9.60 11.51 9.27 11.58Q8.93 11.66 8.60 11.78Q8.26 11.90 8.05 12.06Q7.84 12.22 7.71 12.47Q7.57 12.72 7.57 13.04ZM6.89 13.24L6.89 13.24Q6.89 12.37 7.69 11.80Q8.48 11.23 10.06 11.14L10.06 11.14L10.06 10.87Q10.06 9.74 9.78 9.25Q9.51 8.75 8.75 8.75L8.75 8.75Q8.23 8.75 8.00 9.13Q7.77 9.52 7.68 10.23L7.68 10.23Q7.44 10.23 7.28 10.11Q7.12 9.99 7.12 9.78L7.12 9.78Q7.12 9.26 7.76 8.83Q8.40 8.40 9.11 8.40L9.11 8.40Q9.91 8.40 10.29 8.91Q10.67 9.43 10.67 10.51L10.67 10.51L10.67 12.83Q10.67 13.03 10.67 13.14Q10.68 13.24 10.69 13.40Q10.71 13.56 10.75 13.64Q10.79 13.73 10.85 13.83Q10.92 13.92 11.02 13.98Q11.13 14.03 11.27 14.05L11.27 14.05L11.72 14.14L11.69 14.38Q11.37 14.52 11.00 14.52L11.00 14.52Q10.60 14.52 10.37 14.25Q10.14 13.99 10.14 13.60L10.14 13.60L10.14 13.51L10.11 13.51Q9.98 13.88 9.47 14.23Q8.96 14.57 8.31 14.57L8.31 14.57Q7.74 14.57 7.31 14.21Q6.89 13.84 6.89 13.24ZM13.23 9.05L12.40 8.84L12.43 8.60L14.92 8.60L14.90 8.82L13.90 9.04L15.48 13.51L17.07 9.05L15.98 8.84L16.03 8.60L18.31 8.60L18.27 8.82L17.53 9.04L15.54 14.47L15.20 14.57L13.23 9.05ZM19.81 9.21L18.95 9.21L18.95 9.02Q19.28 8.90 19.43 8.82Q19.58 8.74 19.75 8.56Q19.91 8.37 20.00 8.07Q20.08 7.77 20.18 7.23L20.18 7.23L20.47 7.23L20.47 8.86L22.40 8.86L22.35 9.23L20.46 9.23L20.45 12.34Q20.45 13.25 20.65 13.57Q20.86 13.90 21.33 13.90L21.33 13.90Q21.56 13.90 21.84 13.77Q22.13 13.64 22.29 13.51L22.29 13.51L22.46 13.38L22.57 13.61Q22.26 14.04 21.82 14.30Q21.38 14.56 20.95 14.56L20.95 14.56Q20.33 14.56 20.06 14.10Q19.79 13.64 19.79 12.74L19.79 12.74L19.81 9.21ZM24.01 11.03L24.01 11.03L26.65 10.88Q26.72 10.75 26.72 10.26L26.72 10.26Q26.72 9.65 26.37 9.23Q26.01 8.80 25.50 8.80L25.50 8.80Q24.82 8.80 24.41 9.39Q24.01 9.98 24.01 11.03ZM23.29 11.59L23.29 11.59Q23.29 10.12 24.04 9.27Q24.79 8.42 25.83 8.42L25.83 8.42Q26.61 8.42 27.02 8.90Q27.42 9.37 27.42 10.42L27.42 10.42Q27.42 10.82 27.30 11.31L27.30 11.31L23.99 11.36Q23.99 11.94 24.11 12.42Q24.23 12.89 24.47 13.26Q24.71 13.62 25.10 13.83Q25.49 14.03 26.01 14.03L26.01 14.03Q26.91 14.03 27.49 13.46L27.49 13.46L27.60 13.69Q27.30 14.10 26.78 14.35Q26.27 14.59 25.62 14.59L25.62 14.59Q24.59 14.59 23.94 13.83Q23.29 13.07 23.29 11.59ZM28.35 11.70L28.35 11.70Q28.35 10.20 29.07 9.31Q29.78 8.42 30.91 8.42L30.91 8.42Q31.71 8.42 32.06 8.76Q32.42 9.10 32.42 9.57L32.42 9.57Q32.42 10.08 31.98 10.21L31.98 10.21Q31.73 9.49 31.42 9.16Q31.10 8.84 30.58 8.84L30.58 8.84Q29.93 8.84 29.48 9.48Q29.03 10.12 29.03 11.30L29.03 11.30Q29.03 14.09 30.98 14.09L30.98 14.09Q31.45 14.09 31.88 13.89Q32.31 13.69 32.59 13.41L32.59 13.41L32.71 13.64Q32.46 14.03 31.88 14.31Q31.30 14.59 30.65 14.59L30.65 14.59Q29.55 14.59 28.95 13.78Q28.35 12.97 28.35 11.70ZM36.07 14.40L33.35 14.40L33.42 14.16L34.47 13.99L34.47 6.26L33.43 6.05L33.47 5.84L35.10 5.70L35.14 5.77L35.14 8.75L35.08 9.47L35.11 9.47Q35.53 9.01 36.11 8.70Q36.69 8.38 37.26 8.38L37.26 8.38Q37.99 8.38 38.38 8.89Q38.78 9.40 38.78 10.46L38.78 10.46L38.78 14.01L39.74 14.14L39.70 14.40L37.14 14.40L37.18 14.17L38.14 14.01L38.16 10.64L38.16 10.60Q38.16 9.73 37.84 9.32Q37.52 8.91 36.96 8.91L36.96 8.91Q36.37 8.91 35.96 9.15Q35.54 9.39 35.14 9.86L35.14 9.86L35.14 13.99L36.11 14.15L36.07 14.40ZM41.36 6.24L41.36 6.24Q41.36 5.58 41.79 5.58L41.79 5.58Q42.23 5.58 42.23 6.24L42.23 6.24Q42.23 6.94 41.79 6.94Q41.36 6.94 41.36 6.24ZM43.16 14.40L40.38 14.40L40.47 14.18L41.49 13.99L41.49 9.01L40.45 8.82L40.47 8.63L42.08 8.50L42.14 8.56L42.14 13.99L43.23 14.17L43.16 14.40ZM44.67 11.03L44.67 11.03L47.31 10.88Q47.38 10.75 47.38 10.26L47.38 10.26Q47.38 9.65 47.02 9.23Q46.67 8.80 46.16 8.80L46.16 8.80Q45.48 8.80 45.07 9.39Q44.67 9.98 44.67 11.03ZM43.95 11.59L43.95 11.59Q43.95 10.12 44.70 9.27Q45.45 8.42 46.49 8.42L46.49 8.42Q47.27 8.42 47.67 8.90Q48.08 9.37 48.08 10.42L48.08 10.42Q48.08 10.82 47.95 11.31L47.95 11.31L44.65 11.36Q44.65 11.94 44.77 12.42Q44.88 12.89 45.12 13.26Q45.36 13.62 45.76 13.83Q46.15 14.03 46.67 14.03L46.67 14.03Q47.57 14.03 48.15 13.46L48.15 13.46L48.26 13.69Q47.95 14.10 47.44 14.35Q46.93 14.59 46.28 14.59L46.28 14.59Q45.25 14.59 44.60 13.83Q43.95 13.07 43.95 11.59Z"></path></g><!----><g data-v-423bf9ae="" id="020440a3-6aa8-43aa-a57b-181f0adaf569" transform="matrix(3.1655587482973337,0,0,3.1655587482973337,-82.28351299705301,-112.49236336916172)" stroke="none" fill="black"><path d="M35.859 40.14L25.996 50l9.863 9.862 2.557-2.557L31.111 50l7.305-7.304-2.557-2.556zm28.283 0l-2.557 2.557L68.89 50l-7.305 7.306 2.557 2.557L74.005 50l-9.863-9.86zM40.334 62.526l3.197 1.689 14.136-26.742-3.197-1.689-14.136 26.742z"></path></g><!----></svg>